<?xml version="1.0" encoding="utf-8"?>
<!-- Generator: Adobe Illustrator 22.1.0, SVG Export Plug-In . SVG Version: 6.00 Build 0)  -->
<svg version="1.1" id="Layer_1" xmlns="http://www.w3.org/2000/svg" xmlns:xlink="http://www.w3.org/1999/xlink" x="0px" y="0px"
	 viewBox="0 0 167.3 167.3" style="enable-background:new 0 0 167.3 167.3;" xml:space="preserve">
<style type="text/css">
	.st0{fill:#FDD231;}
</style>
<g>
	<path class="st0" d="M90.4,29.4c0-2.1,0.4-5.2,1.1-9.4c1.3-7.5-1.7-13.6-7.3-16.9c0,0-2.5-1.6-6.6-3l-0.7,1.2
		c3.3,2.6,3.7,6.4,0.4,15.2c-2.1,5.7-2.2,9.9-1,13.1C80.9,28.8,85.7,28.8,90.4,29.4z"/>
	<path class="st0" d="M58.6,24.5c-2.6-7.2-8.3-10.9-14.8-11c0,0-2.9-0.1-7.2,0.7v1.4c4.1,0.6,6.4,3.7,7.9,12.9c1,6,3.1,9.7,5.7,11.8
		c3.8-2.9,7.9-5.3,12.2-7.1C61.3,31.4,60.1,28.5,58.6,24.5z"/>
	<path class="st0" d="M40.1,50.6c-1.9-1-4.4-2.9-7.7-5.6c-5.8-4.9-12.6-5.3-18.3-2.1c0,0-2.6,1.4-5.9,4.2l0.7,1.2
		c3.9-1.5,7.4,0,13.3,7.2c3.9,4.7,7.5,6.9,10.9,7.4c0.9-2.3,2-4.5,3.2-6.6C37.5,54.3,38.7,52.4,40.1,50.6z"/>
	<path class="st0" d="M29.4,76.9c-2.1,0-5.2-0.4-9.4-1.1c-7.6-1.3-13.6,1.7-17,7.3c0,0-1.6,2.5-3,6.6l1.2,0.7
		c2.6-3.3,6.4-3.7,15.2-0.4c5.7,2.1,9.9,2.2,13.1,1C28.8,86.4,28.8,81.6,29.4,76.9z"/>
	<path class="st0" d="M24.5,108.7c-7.2,2.6-10.9,8.3-11,14.8c0,0-0.1,2.9,0.7,7.2h1.4c0.6-4.1,3.7-6.4,12.9-7.9
		c6-1,9.7-3.1,11.8-5.7c-2.9-3.8-5.3-7.9-7.1-12.2C31.4,106,28.5,107.2,24.5,108.7z"/>
	<path class="st0" d="M50.6,127.2c-1,1.9-2.9,4.4-5.6,7.7c-4.9,5.8-5.3,12.6-2.1,18.3c0,0,1.4,2.6,4.2,5.9l1.2-0.7
		c-1.5-3.9,0-7.4,7.2-13.3c4.7-3.9,6.9-7.5,7.4-10.9c-2.3-0.9-4.5-2-6.6-3.2C54.3,129.8,52.4,128.6,50.6,127.2z"/>
	<path class="st0" d="M76.9,137.9c0,2.1-0.4,5.2-1.1,9.4c-1.3,7.5,1.7,13.6,7.3,16.9c0,0,2.5,1.6,6.6,3l0.7-1.2
		c-3.3-2.6-3.7-6.4-0.4-15.2c2.1-5.7,2.2-9.9,1-13.1C86.4,138.5,81.6,138.5,76.9,137.9z"/>
	<path class="st0" d="M108.7,142.8c2.6,7.2,8.3,10.9,14.8,11c0,0,2.9,0.1,7.2-0.7v-1.4c-4.1-0.6-6.4-3.7-7.9-12.9
		c-1-6-3.1-9.7-5.7-11.8c-3.8,2.9-7.9,5.3-12.2,7.1C106,135.9,107.2,138.8,108.7,142.8z"/>
	<path class="st0" d="M127.2,116.7c1.9,1,4.4,2.9,7.7,5.6c5.8,4.9,12.6,5.3,18.3,2.1c0,0,2.6-1.4,5.9-4.2l-0.7-1.2
		c-3.9,1.5-7.4,0-13.3-7.2c-3.9-4.7-7.5-6.9-10.9-7.4c-0.9,2.3-2,4.5-3.2,6.6C129.8,113,128.6,114.9,127.2,116.7z"/>
	<path class="st0" d="M166.1,76.9c-2.6,3.3-6.4,3.7-15.2,0.4c-5.7-2.1-9.9-2.2-13.1-1c0.6,4.7,0.7,9.4,0.1,14.2
		c2.1,0,5.2,0.4,9.4,1.1c7.5,1.3,13.6-1.7,16.9-7.3c0,0,1.6-2.5,3-6.6L166.1,76.9z"/>
	<path class="st0" d="M142.8,58.6c7.2-2.6,10.9-8.3,11-14.8c0,0,0.1-2.9-0.7-7.2h-1.4c-0.6,4.1-3.7,6.4-12.9,7.9
		c-6,1-9.7,3.1-11.8,5.7c2.9,3.8,5.3,7.9,7.1,12.2C135.9,61.3,138.8,60.1,142.8,58.6z"/>
	<path class="st0" d="M116.7,40.1c1-1.9,2.9-4.4,5.6-7.7c4.9-5.8,5.3-12.6,2.1-18.3c0,0-1.4-2.6-4.2-5.9L119,8.9
		c1.5,3.9,0,7.4-7.2,13.3c-4.7,3.9-6.9,7.5-7.4,10.9c2.3,0.9,4.5,2,6.6,3.2C113,37.5,114.9,38.7,116.7,40.1z"/>
	<path class="st0" d="M133.3,76.9c-0.6-4.4-1.8-8.6-3.5-12.7c-1.7-4-3.9-7.8-6.6-11.2s-5.8-6.5-9.4-9.2c-1.6-1.2-3.4-2.4-5.2-3.5
		c-2-1.1-4-2.1-6.1-3c-4.2-1.7-8.4-2.8-12.7-3.4c-4.3-0.5-8.7-0.5-13,0.1c-4.4,0.6-8.6,1.8-12.7,3.5c-4,1.7-7.8,3.9-11.2,6.6
		c-3.4,2.7-6.5,5.8-9.2,9.4c-1.2,1.6-2.4,3.4-3.5,5.2c-1.1,2-2.1,4-3,6.1c-1.7,4.2-2.8,8.4-3.4,12.7c-0.5,4.3-0.5,8.7,0.1,13
		c0.6,4.4,1.8,8.6,3.5,12.7c1.7,4,3.9,7.8,6.6,11.2c2.7,3.4,5.8,6.5,9.4,9.2c1.6,1.2,3.4,2.4,5.2,3.5c2,1.1,4,2.1,6.1,3
		c4.2,1.7,8.4,2.8,12.7,3.4c4.3,0.5,8.7,0.5,13-0.1c4.4-0.6,8.6-1.8,12.7-3.5c4-1.7,7.8-3.9,11.2-6.6c3.4-2.7,6.5-5.8,9.2-9.4
		c1.2-1.6,2.4-3.4,3.5-5.2c1.1-2,2.1-4,3-6.1c1.7-4.2,2.8-8.4,3.4-12.7C134,85.5,133.9,81.2,133.3,76.9z"/>
</g>
</svg>
